<?xml version="1.0" encoding="utf-8"?>
<!-- Generator: Adobe Illustrator 25.2.1, SVG Export Plug-In . SVG Version: 6.00 Build 0)  -->
<svg version="1.1" id="Capa_1" xmlns="http://www.w3.org/2000/svg" xmlns:xlink="http://www.w3.org/1999/xlink" x="0px" y="0px"
	 viewBox="0 0 420.94 595.28" style="enable-background:new 0 0 420.94 595.28;" xml:space="preserve">
<g>
	<path d="M212.5,342.79c-2.55,4.87-4.89,9.37-7.25,13.86c-3.81,7.27-7.68,14.51-11.41,21.83c-0.78,1.52-1.68,1.97-3.33,1.97
		c-19.33-0.06-38.67-0.03-58-0.03c-1.05,0-2.1,0-3.38,0c0,4.23,0.01,8.17,0,12.1c-0.01,6.78-4.18,11.01-10.91,11.03
		c-10.96,0.02-21.92,0.02-32.88,0c-6.39-0.01-10.71-4.06-10.74-10.47c-0.08-18.95-0.08-37.91,0.09-56.86
		c0.02-2.21,1.31-4.4,2.01-6.61c0.26-0.84,0.73-1.67,0.74-2.51c0.07-4.57,0.28-9.15-0.02-13.7c-0.56-8.51,2.22-16.01,6.34-23.17
		c1.59-2.76,3.31-5.45,5.14-8.45c-3.47-0.37-6.83-0.63-10.15-1.1c-4.74-0.68-9.48-1.36-14.16-2.33c-6.81-1.4-7.15-6.41-5.25-10.89
		c2.7-6.35,8.27-8.53,14.51-9.61c5.22-0.9,10.3-0.23,15.3,1.37c5.05,1.61,6.34,3.81,5.62,9.07c-0.2,1.44,0.05,2.95,0.1,4.42
		c0.32,0.07,0.64,0.14,0.96,0.21c2.58-3.35,5.58-6.46,7.68-10.08c7.37-12.69,14.46-25.53,21.57-38.37c1.25-2.26,2.98-3.62,5.43-4.03
		c6.59-1.1,13.17-2.55,19.81-3.08c12.13-0.96,24.3-1.35,36.46-1.97c0.75-0.04,1.51,0,2.38,0c1.83,6.33,4.59,12.11,8.83,17.11
		c7.41,8.73,16.76,13.94,28.13,15.34c2.07,0.25,3.32,0.98,4.32,2.92c4.67,9.05,9.58,17.98,14.27,27.02c0.59,1.13,0.6,2.69,0.51,4.03
		c-0.26,3.83-0.71,7.65-1.12,11.87c-0.41,0-1.37,0-2.32,0c-22.9,0-45.81-0.01-68.71,0.03c-1.59,0-3.23,0.07-4.75,0.47
		c-4.54,1.2-7.64,5.18-7.68,9.9c-0.08,9.36-0.09,18.73-0.02,28.09c0.05,6.1,4.66,10.62,10.76,10.64
		c12.71,0.04,25.42,0.01,38.14,0.01C210.34,342.79,211.18,342.79,212.5,342.79z M121.89,294.9c0,0,0,0.01,0,0.01
		c-5.93,0-11.86-0.04-17.8,0.01c-4.84,0.04-7.78,3.04-7.8,7.88c-0.02,5.25-0.02,10.5,0,15.74c0.02,5.35,2.85,8.22,8.14,8.23
		c11.71,0.02,23.42,0.02,35.14,0c5.04-0.01,7.94-2.86,7.97-7.89c0.04-5.32,0.02-10.65,0.01-15.97c-0.02-5.13-2.91-8-8.09-8.02
		C133.6,294.89,127.74,294.9,121.89,294.9z M123.65,351.44c6.3,0,12.61,0.02,18.91-0.02c0.8,0,1.69-0.09,2.39-0.44
		c2.12-1.07,2.95-3.04,2.43-5.33c-0.46-2.04-2.26-3.36-4.78-3.36c-12.54-0.02-25.07-0.01-37.61,0c-3.46,0-5.57,1.79-5.52,4.64
		c0.05,2.71,2.22,4.51,5.48,4.51C111.19,351.45,117.42,351.45,123.65,351.44z"/>
		<path d="M228.48,429.57c-1.63-0.5-4.53-1.01-7.06-2.26c-7.23-3.56-14.35-7.34-21.43-11.18c-9.01-4.89-12.29-15.43-7.56-24.52
			c11.23-21.57,22.55-43.11,33.9-64.62c2.89-5.48,7.56-8.69,13.74-9.36c2.14-0.23,3.29-1.07,4.22-2.99c2.25-4.65,4.8-9.16,7.11-13.78
			c0.37-0.73,0.38-1.93,0.04-2.68c-3.14-6.83-3-13.53,0.55-20.16c1.43-2.68,2.79-5.4,4.25-8.07c1.6-2.93,4.13-3.71,7.12-2.14
			c14.69,7.67,29.37,15.36,44.03,23.08c3.07,1.61,3.87,4.19,2.31,7.27c-1.51,2.98-3.05,5.95-4.67,8.88
			c-3.26,5.86-8.18,9.54-14.8,10.7c-1.93,0.34-2.99,1.23-3.83,2.94c-2.28,4.64-4.7,9.21-7.16,13.75c-0.61,1.13-0.63,1.92,0.03,3.07
			c3.37,5.84,3.55,11.89,0.44,17.86c-11.15,21.36-22.37,42.69-33.57,64.02C242.67,425.97,237.07,429.14,228.48,429.57z M270.54,348.7
			c-0.2-3.26-2.22-5.99-5.15-6.72c-3.2-0.79-6.16,0.57-7.8,3.69c-6.75,12.84-13.48,25.69-20.21,38.53
			c-4.44,8.47-8.87,16.95-13.31,25.43c-1.24,2.37-1.16,4.71,0.3,6.91c1.41,2.13,3.51,3.16,6.05,2.94c2.95-0.26,4.67-2.13,5.99-4.65
			c10.9-20.87,21.85-41.7,32.76-62.56C269.76,351.14,270.09,349.89,270.54,348.7z M247.56,337.44c0.13-3.7-1.77-6.41-4.6-7.28
			c-3.1-0.95-6.31,0.33-7.92,3.39c-11.22,21.3-22.41,42.61-33.56,63.94c-1.94,3.7-0.73,7.66,2.67,9.38c3.45,1.75,7.23,0.45,9.2-3.3
			c11.12-21.18,22.22-42.36,33.29-63.56C247.17,339.01,247.4,337.88,247.56,337.44z"/>
		<path d="M304.71,316.08c1.72,3.21,3.55,6.6,5.36,10c4.01,7.51,8.04,15.01,11.98,22.55c0.71,1.37,1.53,1.87,3.11,1.99
			c16.25,1.26,28.08,9.25,34.26,24.31c6.2,15.11,3.13,29.05-7.39,41.42c-0.14,0.16-0.36,0.25-0.79,0.55
			c-1.43-4.48-2.83-8.84-4.2-13.21c-2.57-8.19-5.16-16.37-7.66-24.58c-0.37-1.21-0.85-1.67-2.12-1.79
			c-5.83-0.57-11.63-1.3-17.46-1.88c-0.65-0.06-1.5,0.27-2.01,0.71c-4.46,3.8-8.91,7.62-13.23,11.57c-0.55,0.5-0.71,1.9-0.47,2.7
			c3.65,11.91,7.4,23.78,11.12,35.67c0.18,0.57,0.31,1.16,0.55,2.05c-5.22-0.9-9.76-2.82-13.96-5.57
			c-20.14-13.2-23.8-40.92-7.77-58.91c0.95-1.07,1.28-1.87,0.42-3.12c-0.73-1.06-1.26-2.26-1.84-3.4
			c-2.75-5.37-5.62-10.56-7.06-16.63c-0.94-3.95-0.86-6.91,1.29-10.05c0.09-0.12,0.17-0.26,0.22-0.4c1.87-4.62,4.33-8.29,9.89-9.4
			C299.66,320.09,302,317.73,304.71,316.08z"/>
		<path d="M239.28,165.71c13,2.98,22.49,9.91,27.87,21.64c7.45,16.25,4.34,31.08-7.33,44.56c4.02,7.53,8.1,15.16,12.18,22.8
			c1.68,3.15,3.26,6.37,5.08,9.44c1.11,1.86,1.07,3.35-0.62,5.01c-3.35-1.75-6.77-3.53-10.18-5.33c-6.17-3.25-11.5-1.63-14.73,4.49
			c-0.96,1.81-1.9,3.63-3.1,5.93c-1.8-3.34-3.43-6.35-5.04-9.37c-3.58-6.71-7.11-13.44-10.78-20.09c-0.4-0.72-1.6-1.35-2.46-1.4
			c-18.72-1.1-33.55-13.86-36.87-32.21c-2.34-12.98,1.44-24.29,10.47-34.4c1.54,4.89,2.97,9.4,4.39,13.92
			c2.5,7.97,5.02,15.94,7.45,23.94c0.45,1.49,1.2,1.99,2.71,2.12c5.23,0.46,10.44,1.05,15.65,1.69c1.62,0.2,2.86-0.08,4.12-1.22
			c4-3.63,8.1-7.15,12.23-10.64c1.03-0.87,1.2-1.61,0.79-2.91c-3.8-11.94-7.52-23.91-11.26-35.87
			C239.68,167.28,239.56,166.77,239.28,165.71z"/>
		<path d="M294.77,277.64c-4.47-2.35-8.77-4.6-13.26-6.97c1.71-3.28,3.33-6.44,4.98-9.58c9.67-18.45,19.34-36.9,29.02-55.34
			c0.82-1.56,1.35-2.91,1.03-4.94c-0.38-2.44,0.74-5.07,0.89-7.64c0.24-4.26,2.09-7.51,5.1-10.5c4.32-4.28,8.3-8.9,12.32-13.48
			c1.32-1.5,2.44-1.66,4.11-0.65c2.47,1.49,5.05,2.8,7.62,4.11c1.26,0.64,1.78,1.39,1.43,2.89c-1.83,7.76-3.55,15.55-5.39,23.3
			c-0.18,0.75-0.75,1.48-1.32,2.04c-2.6,2.57-4.89,5.75-7.99,7.43c-4.33,2.35-5.43,6.52-7.38,10.2
			c-10.17,19.13-20.17,38.35-30.24,57.54C295.46,276.5,295.18,276.94,294.77,277.64z"/>
</g>
</svg>
