<?xml version="1.0" encoding="utf-8"?>
<!-- Generator: Adobe Illustrator 25.2.1, SVG Export Plug-In . SVG Version: 6.00 Build 0)  -->
<svg version="1.1" id="Capa_1" xmlns="http://www.w3.org/2000/svg" xmlns:xlink="http://www.w3.org/1999/xlink" x="0px" y="0px"
	 viewBox="0 0 420.94 595.28" style="enable-background:new 0 0 420.94 595.28;" xml:space="preserve">
<g>
	<path d="M222.31,346.4c2.49-14.41,4.78-27.62,7.13-41.19c5.35,0,10.33-0.21,15.27,0.14c1.36,0.1,3.19,1.6,3.78,2.92
		c1.84,4.08,3.37,8.33,4.67,12.62c0.92,3.01,2.39,4.24,5.67,4.07c5.45-0.29,10.93-0.08,17.05-0.08c0,8.57,0,16.79,0,25.61
		c7.05,0,13.47,0,19.88,0c0.19,0.49,0.38,0.98,0.57,1.47c-1.06,0.73-2.04,1.73-3.21,2.13c-2.19,0.74-4.6,0.87-6.74,1.71
		c-8.47,3.33-11.95,9.39-9.58,18.25c3.48,13.01,7.76,25.79,11.41,38.75c5.35,19,8.3,38.36,8.19,58.57c-14.12,0-28.15,0-42.56,0
		c0.59-1.7,1.39-3.19,1.6-4.75c0.68-5.06,2.14-10.28,1.48-15.19c-1.3-9.69-3.81-19.21-5.83-28.8c-1.14-5.45-4.77-8.29-10.02-9.03
		c-3.61-0.51-7.31-0.35-10.94-0.77c-1.6-0.19-3.13-1.06-4.69-1.62c1.44-1.07,2.73-2.61,4.35-3.13c5.21-1.68,10.64-2.71,15.81-4.5
		c6.73-2.33,8.19-4.21,6.99-11.18c-2.42-14.08-5.52-28.04-8.28-42.06c-0.59-2.97-2.22-4.09-5.24-3.99
		C233.79,346.52,228.48,346.4,222.31,346.4z"/>
	<path d="M194.11,289.35c-4.11-1.96-7.69-3.67-11.54-5.5c2.14-4.93,4.33-9.54,6.11-14.31c0.56-1.48,0.61-3.67-0.08-5.02
		c-7.76-15.08-15.75-30.04-23.53-45.11c-0.73-1.41-1.11-3.65-0.5-4.98c12.65-27.89,25.47-55.7,38.49-84.05
		c31.33,14.36,62.43,28.62,93.93,43.05c-6,13.13-11.83,25.94-17.7,38.74c-6.59,14.38-13.27,28.71-19.74,43.14
		c-1.34,2.98-3.01,4.65-6.36,5.39c-15.27,3.39-30.44,7.22-45.72,10.59c-4.14,0.91-6.84,2.58-8.26,6.71
		C197.93,281.73,195.99,285.24,194.11,289.35z M281.42,193.3c-3.32-0.6-6.07-1.55-8.81-1.52c-9.67,0.11-19.34,0.74-29.01,0.82
		c-19,0.15-38,0.12-57,0.01c-3.68-0.02-6.18,0.53-7.6,4.61c-1.8,5.16-4.37,10.07-6.91,14.93c-1.66,3.17-1.41,5.89,0.29,8.91
		c2.77,4.93,5.26,10.01,7.87,15.03c4.81,9.25,9.77,18.43,14.3,27.81c0.91,1.89,0.59,4.7,0.05,6.89c-0.65,2.6-2.15,4.98-3.29,7.46
		c1.9-1.22,3.1-2.83,3.68-4.64c1.47-4.66,4.49-6.59,9.31-7.57c14.67-2.99,29.26-6.43,43.77-10.15c2.66-0.68,5.48-3.09,6.97-5.48
		c2.7-4.35,4.45-9.28,6.6-13.97C268.13,222.25,274.65,208.06,281.42,193.3z"/>
	<path d="M195.18,294.43c-1.14,3.46-2.17,6.57-3.46,10.48c5.93,0,11.46,0,17.71,0c-0.63,2.72-1,4.58-1.49,6.42
		c-2.8,10.43-5.53,20.87-8.56,31.23c-0.42,1.44-2.33,3.47-3.58,3.49c-14.27,0.25-28.55,0.16-43.17,0.16c0-13.41,0-26.78,0-41.04
		c3.83,0,7.6-0.23,11.32,0.07c3.19,0.26,4.86-1,6.12-3.8c2.23-5,4.75-9.86,7.42-15.32C183.43,288.91,189.19,291.62,195.18,294.43z"
		/>
	<path d="M310.74,154.77c-2.17,4.77-4.15,9.11-6.42,14.09c-34.12-15.65-68.03-31.2-102.59-47.04c2.2-4.77,4.24-9.2,6.49-14.08
		C242.56,123.49,276.47,139.05,310.74,154.77z"/>
	<path d="M193.15,405.17c10.23-2.96,10.71-10.67,11.63-18.49c1.43-12.15,1.85-24.16-0.96-36.2c-0.65-2.79-0.52-6.03,0.21-8.81
		c3.36-12.87,7.09-25.64,10.6-38.47c0.97-3.53,3.05-5.88,6.71-5.15c3.79,0.75,4.49,3.72,3.81,7.37c-1.84,9.97-3.7,19.95-5.08,29.99
		c-2.2,15.98-3.76,32.04-6.1,48c-0.94,6.35-2.8,12.67-5.08,18.69C206.64,408.03,200.26,409.41,193.15,405.17z"/>
	<path d="M133.35,355.17c0-14.59,0-28.32,0-42.39c4.84,0,9.41,0,14.74,0c0,12.56,0,25.08,0,37.65c2.54,0.23,4.33,0.4,7.77,0.72
		c-1.45,1.78-2.33,3.83-3.29,3.87C146.31,355.31,140.03,355.17,133.35,355.17z"/>
	<path d="M123.6,341.14c-4.3,0.86-8.35,1.67-12.59,2.52c-1.73-3.92-0.72-6,3.38-6.78c2.74-0.52,5.4-1.47,8.09-2.23
		c-0.07-0.67-0.14-1.35-0.22-2.02c-3.77-0.29-7.54-0.57-11.65-0.88c0-2.21,0-4.28,0-6.78c5.82,0,11.72,0,17.98,0
		c0,8.39,0,16.78,0,25.17c-0.45,0.21-0.91,0.43-1.36,0.64C126.04,347.62,124.85,344.47,123.6,341.14z"/>
	<path d="M301.02,487.08c-15.03,0.62-11.48,2.34-16.4-10.08C294.55,473.1,297.89,475.07,301.02,487.08z"/>
	<path d="M271.91,476.21c0,3.91,0,7.34,0,11.1c-4.17,0-8.08,0-12.38,0c0-3.68,0-7.22,0-11.1
		C263.61,476.21,267.51,476.21,271.91,476.21z"/>
	<path d="M280.49,331.83c5.63,0,10.91,0,16.69,0c0,2.8,0,5.49,0,8.49c-5.52,0-10.92,0-16.69,0
		C280.49,337.56,280.49,334.99,280.49,331.83z"/>
	<path d="M254.54,309.82c4.09,0,8.18-0.13,12.26,0.1c0.89,0.05,1.72,1.38,2.57,2.13c-0.85,0.94-1.62,2.58-2.56,2.68
		c-3.09,0.33-6.32,0.51-9.33-0.07c-1.46-0.28-2.57-2.4-3.83-3.69C253.94,310.58,254.24,310.2,254.54,309.82z"/>
</g>
</svg>
