<?xml version="1.0" encoding="utf-8"?>
<!-- Generator: Adobe Illustrator 25.2.1, SVG Export Plug-In . SVG Version: 6.00 Build 0)  -->
<svg version="1.1" id="Capa_1" xmlns="http://www.w3.org/2000/svg" xmlns:xlink="http://www.w3.org/1999/xlink" x="0px" y="0px"
	 viewBox="0 0 420.94 595.28" style="enable-background:new 0 0 420.94 595.28;" xml:space="preserve">
<g>
	<path d="M350.78,376.08c-1.21-0.96-2.36-1.13-3.77-0.48c-7.38,3.37-14.83,6.61-22.17,10.07c-9.67,4.56-19.63,8.09-30.35,9.14
		c-1.79,0.18-3.59,0.3-5.59,0.46c0.23-0.32,0.26-0.41,0.33-0.45c6.13-3.82,11.56-8.39,15.96-14.18
		c9.62-12.66,13.4-26.75,10.41-42.47c-2.56-13.44-5.34-26.84-7.82-40.29c-2.57-13.94-3.56-28.03-3.23-42.2
		c0.29-12.78,0.59-25.55,0.94-38.33c0.09-3.25-0.6-6.31-2.07-9.14c-4.68-9.01-12.39-13.27-22.32-13.49
		c-8.92-0.2-17.84-0.03-26.76-0.02c-2,0-4,0-5.98,0c0-8.48,0-16.76,0-25.07c1.29-0.08,2.48-0.05,3.64-0.25
		c12.23-2.05,20.01-11.27,20.01-23.66c0-3.64,0.02-7.28-0.01-10.92c-0.02-2.03-0.14-4.06-0.23-6.42c-1.48,1.92-1.57,4.46-0.74,6.67
		c0.47,1.25,0.57,2.63,0.84,3.95c-0.16,0.07-0.33,0.14-0.49,0.22c-0.51-0.45-1.09-0.84-1.51-1.36c-2.64-3.24-2.66-8.23,0.06-11.42
		c0.74-0.87,0.76-1.53,0.32-2.45c-4.39-9.38-11.81-14.12-22.12-14.15c-21.93-0.06-43.87-0.04-65.8,0
		c-3.95,0.01-7.94-0.08-11.83,0.45c-10.06,1.36-18.54,10.98-18.81,21.13c-0.14,5.35-0.17,10.72-0.02,16.07
		c0.29,10.46,7.79,19.34,18.05,21.52c1.82,0.39,3.7,0.51,5.54,0.75c0.04,0.11,0.09,0.2,0.09,0.28c0.02,7.95,0.04,15.9,0.07,23.85
		c0,0.74-0.38,0.84-1,0.84c-10.72-0.03-21.45-0.07-32.17-0.04c-4.27,0.01-8.34,0.98-12.01,3.27c-0.95,0.59-1.78,1.36-2.67,2.05
		c0.01,0.01,0.02,0.02,0.02,0.03c-0.39,0.1-0.9,0.09-1.13,0.34c-1.32,1.4-2.57,2.86-3.84,4.3c-0.02,0.05-0.06,0.09-0.11,0.1
		c-0.52,0.79-1.08,1.57-1.56,2.39c-0.81,1.38-2.32,2.7-0.57,4.46c-0.32-0.27-0.63-0.54-1.32-1.12c-0.34,2.31-0.84,4.29-0.89,6.29
		c-0.09,3.2,0.12,6.41,0.2,9.61c0.24,9.61,0.61,19.23,0.67,28.84c0.04,7.06-0.32,14.13-0.54,21.19c-0.05,1.72-0.21,3.43-0.34,5.33
		c1.22-1.04,2.32-0.6,3.34-0.33c1.02,0.27,1.99,0.78,2.97,1.18c0.06-0.37,0.19-0.93,0.24-1.49c0.74-8.58,1.12-17.17,0.88-25.79
		c-0.34-12.38-0.54-24.76-0.93-37.14c-0.15-4.57,1.45-8.32,4.53-11.51c3.65-3.77,8.23-5.47,13.4-5.5c9.1-0.06,18.2-0.02,27.3-0.02
		c24.75,0,49.5,0.01,74.24,0c12.35-0.01,24.7-0.1,37.05-0.06c1.98,0.01,4.13,0.11,5.91,0.86c2.39,0.99,4.69,2.43,6.69,4.08
		c3.12,2.57,5.1,6.01,5.17,10.13c0.08,5-0.23,10.01-0.32,15.01c-0.22,11.28-0.55,22.57-0.57,33.85c-0.02,9.89,0.84,19.75,2.53,29.49
		c2.09,12.05,4.55,24.05,6.85,36.06c0.82,4.26,1.96,8.49,2.44,12.79c0.97,8.71-0.65,17.07-4.61,24.89
		c-6.14,12.15-15.81,20.4-28.41,25.36c-1.64,0.65-3.22,0.97-4.98,0.53c-2.27-0.57-4.57-0.97-7.06-1.48
		c3.27-3.49,5.88-7.07,7.75-11.12c1.28-2.77,2.23-5.69,3.32-8.54l0.02,0.01c0,0,0.01,0.01,0.01,0.01c0,0,0,0,0,0l0,0c0,0,0,0,0,0
		c-0.01-0.01-0.02-0.02-0.03-0.03c0.17-0.79,0.34-1.57,0.5-2.36c0.02,0.01,0.03,0.02,0.05,0.03c-0.01-0.03-0.02-0.07-0.03-0.1
		c0.26-0.83,0.56-1.66,0.77-2.51c1.27-4.93,1.51-9.96,1.21-15.02c-0.52-8.76-1.11-17.52-1.66-26.28c-0.45-7.1-0.86-14.2-1.32-21.29
		c-0.18-2.84-0.45-5.67-0.66-8.51c-0.16-2.13-0.29-4.26-0.43-6.4c0,0,0.02,0.04,0.02,0.04c-0.1-2.37-0.2-4.74-0.3-7.06
		c-0.55,0.64-0.94,1.22-1.45,1.68c-2.84,2.54-2.92,7.68,0.02,10.04c1.08,0.87,2.18,1.53,1.75,3.15c-0.01,0.03-0.06,0.06-0.13,0.13
		c-2.22-0.57-4.18-1.63-5.19-3.8c-0.48-1.03-0.54-2.26-0.79-3.39c0.73,13.67,1.46,27.34,2.2,41.16c-39.08,0-78.2,0-117.43,0
		c1.04-16.67,2.07-33.25,3.12-50.03c37.14,0,74.18,0,111.19,0c0.33,3.1,0.64,6,0.94,8.91c0-0.26,0.02-0.53-0.01-0.79
		c-0.38-4.11,1.4-6.9,5.12-8.58c0.3-0.14,0.52-0.85,0.49-1.27c-0.63-10.65-1.28-21.3-1.98-31.94c-0.26-3.97-0.21-7.99-1.57-11.83
		c-2.65-7.45-8.88-12.39-16.6-12.16c-10.01,0.29-20.04,0.08-30.06,0.07c-18.42,0-36.83-0.03-55.25,0.01c-1.46,0-3.01,0.24-4.38,0.75
		c-7.37,2.73-10.94,8.55-11.76,15.94c-0.89,8.02-1.14,16.11-1.65,24.17c-0.5,7.89-0.98,15.78-1.47,23.67
		c-0.55,8.85-1.12,17.7-1.67,26.56c-0.59,9.47-1.18,18.93-1.74,28.4c-0.39,6.52-1.1,13.04-0.14,19.59
		c1.54,10.59,5.4,20.11,12.66,28.12c0.12,0.14,0.2,0.32,0.39,0.65c-2.86,0.57-5.56,1.13-8.28,1.61c-0.62,0.11-1.34,0.06-1.93-0.15
		c-11.75-4.13-21.15-11.26-27.81-21.85c-0.88-1.4-1.69-2.84-2.7-4.56c-0.24,0.4-0.54,0.69-0.48,0.82c0.43,0.89,0.94,1.75,1.53,2.8
		c-0.61-0.54-1.02-1.07-1.57-1.35c-0.37-0.19-0.92-0.05-1.38-0.05c0.04,0.44-0.05,0.95,0.15,1.29c0.31,0.53,0.82,0.95,1.25,1.42
		c-0.08,0.08-0.16,0.16-0.24,0.24c-0.54-0.59-1.2-1.11-1.58-1.79c-0.21-0.38-0.11-1.16,0.16-1.52c0.62-0.81,1.44-1.47,2.05-2.07
		c-0.84-2.34-1.69-4.45-2.37-6.62c-1.83-5.9-2.72-11.99-1.64-18.07c2-11.27,4.43-22.46,6.59-33.7c1.08-5.63,2.01-11.3,2.93-16.96
		c0.45-2.78-1.73-4.88-4.42-4.4c-0.87,0.15-1.64,0.49-1.72,1.5c-0.1,1.35-0.11,2.7-0.16,4.05c0.01,0,0.03,0,0.04,0
		c-0.3,1.41-0.6,2.82-0.9,4.23c0,0.01,0.11,0.05,0.22,0.09c0.04-0.34,0.08-0.67,0.13-1.03c0.81,0,1.57,0.09,2.3-0.02
		c1.33-0.19,2.7-0.36,3.76-1.48c-0.18,0.82-0.24,1.97-0.81,2.34c-1.73,1.14-3.7,1.77-5.86,0.99c-0.14,0.41-0.26,0.69-0.32,0.99
		c-2.08,10.63-4.15,21.26-6.22,31.9c-0.75,3.83-1.8,7.64-2.17,11.5c-1.15,12.24,1.78,23.56,8.45,33.89
		c4.57,7.08,10.5,12.81,17.63,17.3c0.45,0.28,0.88,0.59,1.32,0.88c-1.21,0.17-2.3,0.07-3.39-0.01c-7.09-0.53-14.05-1.85-20.65-4.44
		c-6.77-2.66-13.39-5.72-20.05-8.66c-4.7-2.07-9.36-4.22-14.04-6.33c-1.26-0.57-2.46-0.57-3.57,0.37c-1.07,0.9-1.51,1.96-1.2,3.38
		c0.56,2.53,1.02,5.07,1.53,7.61c2.77,13.76,5.55,27.52,8.31,41.28c1.56,7.8,5.83,13.58,13.04,16.94c2.62,1.22,5.56,1.76,8.55,2.68
		c0.01,0.06,0.02,0.23,0.05,0.41c1.93,15.68,10,26.96,24.3,33.72c5.53,2.62,11.45,3.55,17.54,3.54c19.03-0.01,38.06,0,57.09,0
		c24.04,0,48.09,0.02,72.13-0.02c3.86-0.01,7.79,0.14,11.56-0.53c16.05-2.84,26.97-12.05,32.53-27.37
		c1.16-3.19,1.65-6.63,2.49-10.18c0.18-0.02,0.35-0.04,0.53-0.07c9.59-1.31,16.36-6.31,19.67-15.47c1.12-3.1,1.54-6.46,2.2-9.72
		c2.9-14.22,5.76-28.45,8.66-42.67C352.17,378.05,351.94,377,350.78,376.08z M241.67,194.61c-19.88,0-39.71,0-59.65,0
		c0-8.31,0-16.58,0-24.97c19.87,0,39.7,0,59.65,0C241.67,178.02,241.67,186.26,241.67,194.61z M242.16,163.02
		c-22.37,0-44.74,0.01-67.11,0c-8.52-0.01-15.1-5.44-16.66-13.74c-0.18-0.94-0.24-1.92-0.24-2.88c0-5-0.13-10.02,0.11-15.01
		c0.42-8.33,8.2-15.13,16.59-15.04c11.91,0.13,23.82,0.05,35.73,0.05c0.79,0,1.58-0.11,2.36-0.16c0-0.08,0-0.16,0-0.23
		c-0.3-0.05-0.59-0.1-0.89-0.15c0.01-0.13,0.02-0.25,0.04-0.38c0.42,0.05,1.16,0.02,1.19,0.16c0.23,0.97,0.94,0.77,1.56,0.77
		c11.16,0.01,22.33,0.17,33.49-0.04c9.13-0.17,17.18,7,17.15,16.69c-0.01,4.87,0.04,9.75-0.1,14.62
		c-0.23,7.85-7.2,14.89-15.06,15.28C247.61,163.09,244.88,163.02,242.16,163.02z M209.02,277.63L209.02,277.63c0.06,0,0.12,0,0.18,0
		C209.14,277.63,209.08,277.63,209.02,277.63z M157.56,259.67c0.32-5.13,0.64-10.25,0.95-15.38c0.25-4.08,1.44-7.76,4.56-10.59
		c1.69-1.54,3.67-2.28,6-2.28c16.48,0.03,32.97,0.01,49.45,0.01c11.56,0,23.12,0,34.68,0c5.65,0,9.14,2.45,10.94,7.81
		c0.46,1.36,0.79,2.81,0.89,4.23c0.6,8.98,1.12,17.97,1.67,26.96c0.11,1.83,0.23,3.65,0.35,5.59c-36.87,0-73.6,0-110.49,0
		C156.9,270.45,157.23,265.06,157.56,259.67z M155.16,374.87c-2.94-7.33-3.96-14.97-3.33-22.84c0.28-3.5,0.42-7.01,0.63-10.52
		c0.04-0.74,0.12-1.47,0.2-2.36c39.51,0,78.83,0,118.33,0c0.11,1.63,0.22,3.2,0.3,4.76c0.23,4.16,0.56,8.33,0.65,12.5
		c0.14,6.17-0.99,12.16-3.26,17.88c-0.98,2.46-2.3,4.78-3.47,7.16c-0.04,0.08-0.12,0.15-0.13,0.23c-0.49,3.76-4.33,4.77-6.13,7.47
		c-0.86,1.28-2.01,1.16-3.44,0.68c-7.22-2.45-14.41-5.06-21.77-7.06c-11.27-3.06-22.77-3.45-34.36-1.92
		c-9.18,1.21-17.78,4.38-26.46,7.3c-1.91,0.64-3.84,1.25-5.72,1.97c-0.78,0.3-1.27,0.13-1.87-0.38
		C160.58,385.69,157.44,380.56,155.16,374.87z M304.34,468.4c-8.86,9.17-19.96,11.46-32.27,10.29c-0.02-0.25-0.06-0.62-0.06-1
		c-0.01-4.88-0.01-9.75-0.03-14.63c0-1.44-0.77-2.4-2.05-2.94c-1.23-0.51-2.86-0.21-3.58,0.89c-0.51,0.79-0.82,1.85-0.84,2.79
		c-0.08,4.96-0.04,9.91-0.04,15.04c-35.82,0-71.5,0-107.27,0c-0.03-0.38-0.08-0.72-0.08-1.06c0-4.74,0.01-9.49,0.02-14.23
		c0.01-2.13-1.37-3.67-3.29-3.66c-1.91,0.01-3.23,1.39-3.24,3.53c-0.03,4.7-0.01,9.4-0.02,14.1c0,0.39,0,0.78,0,1.32
		c-3.04,0-6.02,0.13-8.98-0.02c-15-0.74-27.2-10.26-31.61-24.62c-0.54-1.76-0.95-3.55-1.35-5.35c-0.25-1.11,0.08-1.66,1.41-1.61
		c3.28,0.14,6.57,0.16,9.86,0.16c24.73,0.01,49.47,0.01,74.2,0.01c23.42,0,46.84,0,70.25,0c4.78,0,9.56,0,14.33,0
		c11.06,0,22.13,0,33.19,0c0.3,0,0.6,0.05,1.05,0.09C313.14,455.64,309.96,462.59,304.34,468.4z M342.58,392.56
		c-2.35,11.65-4.72,23.29-7.05,34.94c-1.47,7.35-8.1,13.52-16.89,13.44c-10.99-0.11-21.98-0.05-32.97-0.02
		c-4.17,0.01-8.34,0.2-12.51,0.19c-21.36-0.05-42.71-0.15-64.07-0.19c-13.65-0.03-27.29,0-40.94,0c-13.8,0-27.6-0.02-41.4,0
		c-3.95,0.01-7.9,0.19-11.85,0.18c-3.77-0.01-7.55-0.08-11.32-0.26c-7.64-0.36-13.95-5.79-15.48-13.29
		c-2.91-14.31-5.78-28.62-8.67-42.94c-0.02-0.12,0.02-0.25,0.05-0.51c2.61,1.17,5.14,2.33,7.7,3.46c6.62,2.92,13.15,6.08,19.89,8.68
		c13.13,5.06,26.78,6.57,40.78,5.07c8.13-0.87,15.87-3.13,23.58-5.74c8.13-2.76,16.14-5.96,24.64-7.55
		c14.84-2.78,29.35-1.63,43.62,3.28c8.04,2.77,16.05,5.74,24.28,7.83c20.39,5.2,40.23,3.07,59.37-5.63
		c6.67-3.03,13.34-6.06,20.01-9.08c0.23-0.11,0.49-0.16,0.89-0.3C343.68,387,343.14,389.78,342.58,392.56z"/>
	<path d="M120.87,285.88c1.06,0.43,2.06,1,3.18,1.56c0-1.07,0-2.25,0-3.25c-0.28,0.06-0.58,0.22-0.83,0.15
		c-1.17-0.32-2.32-0.74-3.5-1.05c-1.16-0.3-1.82,0.15-1.96,1.33c-0.08,0.64-0.01,1.29-0.01,2
		C118.58,285.31,119.73,285.42,120.87,285.88z"/>
</g>
</svg>
